<?xml version="1.0" encoding="utf-8"?>
<!-- Generated by IcoMoon.io -->
<svg version="1.1" xmlns="http://www.w3.org/2000/svg" xmlns:xlink="http://www.w3.org/1999/xlink" width="1200" height="212" viewBox="0 0 1200 212">
    <symbol id="icon-linkedin-square" viewBox="0 0 51 60">
        <path d="M7.935 47.344h7.734v-23.237h-7.734v23.237zM16.172 16.942c-0.033-2.277-1.674-4.018-4.319-4.018s-4.386 1.741-4.386 4.018c0 2.21 1.674 4.018 4.286 4.018h0.033c2.712 0 4.386-1.808 4.386-4.018zM35.759 47.344h7.734v-13.326c0-7.132-3.817-10.446-8.906-10.446-4.152 0-5.993 2.31-6.998 3.917h0.067v-3.382h-7.734s0.1 2.176 0 23.237v0h7.734v-12.991c0-0.67 0.033-1.373 0.234-1.875 0.569-1.373 1.842-2.813 3.984-2.813 2.779 0 3.884 2.109 3.884 5.257v12.422zM51.429 13.929v32.143c0 5.324-4.319 9.643-9.643 9.643h-32.143c-5.324 0-9.643-4.319-9.643-9.643v-32.143c0-5.324 4.319-9.643 9.643-9.643h32.143c5.324 0 9.643 4.319 9.643 9.643z"></path>
    </symbol>
    <symbol id="icon-github" viewBox="0 0 51 60">
        <path d="M25.714 4.286c14.196 0 25.714 11.518 25.714 25.714 0 11.35-7.366 20.993-17.578 24.408-1.306 0.234-1.775-0.569-1.775-1.239 0-0.837 0.033-3.616 0.033-7.065 0-2.411-0.804-3.951-1.741-4.754 5.725-0.636 11.752-2.813 11.752-12.69 0-2.813-1.004-5.089-2.645-6.897 0.268-0.67 1.138-3.281-0.268-6.83-2.143-0.67-7.065 2.645-7.065 2.645-2.042-0.569-4.252-0.871-6.429-0.871s-4.386 0.301-6.429 0.871c0 0-4.922-3.315-7.065-2.645-1.406 3.549-0.536 6.161-0.268 6.83-1.641 1.808-2.645 4.085-2.645 6.897 0 9.844 5.993 12.054 11.719 12.69-0.737 0.67-1.406 1.808-1.641 3.449-1.473 0.67-5.223 1.808-7.467-2.143-1.406-2.444-3.951-2.645-3.951-2.645-2.511-0.033-0.167 1.574-0.167 1.574 1.674 0.77 2.846 3.75 2.846 3.75 1.507 4.587 8.672 3.047 8.672 3.047 0 2.143 0.033 4.152 0.033 4.788 0 0.67-0.469 1.473-1.775 1.239-10.212-3.415-17.578-13.058-17.578-24.408 0-14.196 11.518-25.714 25.714-25.714zM9.743 41.217c0.067-0.134-0.033-0.301-0.234-0.402-0.201-0.067-0.368-0.033-0.435 0.067-0.067 0.134 0.033 0.301 0.234 0.402 0.167 0.1 0.368 0.067 0.435-0.067zM10.781 42.355c0.134-0.1 0.1-0.335-0.067-0.536-0.167-0.167-0.402-0.234-0.536-0.1-0.134 0.1-0.1 0.335 0.067 0.536 0.167 0.167 0.402 0.234 0.536 0.1zM11.786 43.862c0.167-0.134 0.167-0.402 0-0.636-0.134-0.234-0.402-0.335-0.569-0.201-0.167 0.1-0.167 0.368 0 0.603s0.435 0.335 0.569 0.234zM13.192 45.268c0.134-0.134 0.067-0.435-0.134-0.636-0.234-0.234-0.536-0.268-0.67-0.1-0.167 0.134-0.1 0.435 0.134 0.636 0.234 0.234 0.536 0.268 0.67 0.1zM15.1 46.105c0.067-0.201-0.134-0.435-0.435-0.536-0.268-0.067-0.569 0.033-0.636 0.234s0.134 0.435 0.435 0.502c0.268 0.1 0.569 0 0.636-0.201zM17.21 46.272c0-0.234-0.268-0.402-0.569-0.368-0.301 0-0.536 0.167-0.536 0.368 0 0.234 0.234 0.402 0.569 0.368 0.301 0 0.536-0.167 0.536-0.368zM19.152 45.938c-0.033-0.201-0.301-0.335-0.603-0.301-0.301 0.067-0.502 0.268-0.469 0.502 0.033 0.201 0.301 0.335 0.603 0.268s0.502-0.268 0.469-0.469z"></path>
    </symbol>
    <symbol id="icon-new-tab" viewBox="0 0 60 60">
        <path d="M11.25 3.75v45h45v-45h-45zM52.5 45h-37.5v-37.5h37.5v37.5zM7.5 52.5v-39.375l-3.75-3.75v46.875h46.875l-3.75-3.75h-39.375z"></path>
        <path d="M20.625 15l9.375 9.375-11.25 11.25 5.625 5.625 11.25-11.25 9.375 9.375v-24.375z"></path>
    </symbol>
</svg>
